# xmcd
#
# Track frame offsets:
# 150
# 16816
# 33292
# 50811
# 65357
# 80440
# 96746
# 110648
# 127359
# 142011
# 158266
# 168588
# 188936
# 203604
# 220100
# 239092
# 251156
# 263726
# 279824
# 293798
# 307288
# 323672
# 334980
#
# Disc length: 4620 seconds
#
#
# Revision: 0
# Processed by: cddbd v1.5.1PL0 Copyright (c) Steve Scherf et al.
# Submitted via: FreeRIP 2.942 
#
DISCID=64120a17
DTITLE=Various Artist - regonal
DYEAR=2005
DGENRE=Acoustic
TTITLE0=REGIONAL Casa no campo-Chitaozinho e Chororo
TTITLE1=REGIONAL S Casa Cheia-Rio Negro e Solimões
TTITLE2=REGIONAL S Ando Devagar-Daniel and Almir Sater
TTITLE3=REGIONAL S De S. Paulo a Belem-Rio Negro e Solimões
TTITLE4=REGIONAL S Trem do Pantanal-Almir Sater
TTITLE5=REGIONAL NE Esperando na janela-Rio Negro e Solimões
TTITLE6=REGIONAL Viola Enluarada-Zeca Camargo e Luciano
TTITLE7=REGIONAL S Saudade Aperta-Rio negro e Solimões
TTITLE8=REGIONAL S Cumade e Compade-Unknown
TTITLE9=REGIONAL S A gente se entrega-Rio Negro e Solimões
TTITLE10=REGIONAL S Chalana-Almir Sater
TTITLE11=REGIONAL Corpo e Alma-Zeca CAmargo e Luciano
TTITLE12=REGIONAL S Eai Uai-Rio Negro e Solimoes
TTITLE13=REGIONAL S Um Violeiro toca-Almir Sater
TTITLE14=REGIONAL S CAnçao da Amizade-Amigos
TTITLE15=REGIONAL S Feriado Nacional-Bruno e Marrone
TTITLE16=REGIONAL S Bate o pé-Rio Negro e Solimões
TTITLE17=REGIONAL S Bailão do peão-Unknown
TTITLE18=REGIONAL S Peao Apaixonado-Rio negro e Solimões
TTITLE19=REGIONAL S NA aba do meu chapéu-Zeca Camargo e Luciano
TTITLE20=REGIONAL S Hoje é sexta-feira-Leonardo
TTITLE21=REGIONAL S Rei da Festa-Rio Negro e Solimões
TTITLE22=REGIONAL S Estrada da Vida-Leonardo
EXTD=
EXTT0=
EXTT1=
EXTT2=
EXTT3=
EXTT4=
EXTT5=
EXTT6=
EXTT7=
EXTT8=
EXTT9=
EXTT10=
EXTT11=
EXTT12=
EXTT13=
EXTT14=
EXTT15=
EXTT16=
EXTT17=
EXTT18=
EXTT19=
EXTT20=
EXTT21=
EXTT22=
PLAYORDER=
